<svg xmlns="http://www.w3.org/2000/svg" width="216.679" height="55.161" viewBox="0 0 216.679 55.161">
  <g id="Group_1492" data-name="Group 1492" transform="translate(-413.223 -264.219)">
    <g id="Group_1554" data-name="Group 1554">
      <g id="Group_1" data-name="Group 1" transform="translate(486.795 264.219)">
        <path id="Path_1" data-name="Path 1" d="M515.584,282.071l4.679-15.047a2.524,2.524,0,0,1,2.41-1.775h5.7l-8.164,23.431H510.92l-8.235-23.431H508.4a2.523,2.523,0,0,1,2.405,1.761Z" transform="translate(-502.685 -264.401)" fill="#fff"/>
        <path id="Path_2" data-name="Path 2" d="M530.277,281.815a8.277,8.277,0,0,1,2.509-6.256,9.262,9.262,0,0,1,6.609-2.4,9.118,9.118,0,0,1,6.573,2.4,8.962,8.962,0,0,1,0,12.511,9.1,9.1,0,0,1-6.573,2.368,9.263,9.263,0,0,1-6.609-2.4A8.2,8.2,0,0,1,530.277,281.815Zm6.255,0a3.261,3.261,0,0,0,.778,2.262,2.742,2.742,0,0,0,2.085.848,2.666,2.666,0,0,0,2.049-.848,3.284,3.284,0,0,0,.812-2.262,3.133,3.133,0,0,0-.812-2.227,2.575,2.575,0,0,0-2.049-.883,2.646,2.646,0,0,0-2.085.883A3.112,3.112,0,0,0,536.532,281.815Z" transform="translate(-507.586 -265.805)" fill="#fff"/>
        <path id="Path_3" data-name="Path 3" d="M568.787,274.181l-.318,3.148a1.776,1.776,0,0,1-2.063,1.571,12.619,12.619,0,0,0-2.071-.16c-2.368,0-3.746,1.166-3.746,3.039,0,1.838,1.342,2.934,3.711,2.934a10.386,10.386,0,0,0,2.206-.231,1.769,1.769,0,0,1,2.115,1.491l.451,3.193a13.184,13.184,0,0,1-5.974,1.272,9.088,9.088,0,0,1-6.537-2.4,9.1,9.1,0,0,1,0-12.475,8.974,8.974,0,0,1,6.467-2.4A14.029,14.029,0,0,1,568.787,274.181Z" transform="translate(-511.814 -265.805)" fill="#fff"/>
        <path id="Path_4" data-name="Path 4" d="M575.2,288a10.078,10.078,0,0,1,0-12.37,6.748,6.748,0,0,1,5.371-2.474,5.358,5.358,0,0,1,4.418,1.909h0a1.753,1.753,0,0,1,1.742-1.555h5.008v16.575h-6.573l-.177-1.52a5.391,5.391,0,0,1-4.418,1.873A6.827,6.827,0,0,1,575.2,288Zm7.1-9.295a3.095,3.095,0,0,0,0,6.184,3.1,3.1,0,0,0,0-6.184Z" transform="translate(-515.188 -265.805)" fill="#fff"/>
        <path id="Path_5" data-name="Path 5" d="M605.3,264.218V288.5h-6.643V266.656a2.437,2.437,0,0,1,2.437-2.438Z" transform="translate(-519.73 -264.218)" fill="#fff"/>
        <path id="Path_6" data-name="Path 6" d="M524.543,314.2h-4.029v11.344h-6.468V314.2h-2.508v-5.23h2.508V307.7c0-3.216,1.7-6.785,7.634-6.785a15.23,15.23,0,0,1,3.957.53l-.384,2.974a2.01,2.01,0,0,1-2.154,1.748c-.187-.015-.381-.022-.579-.021a2.286,2.286,0,0,0-2.29,2.274v.553h4.312Z" transform="translate(-504.257 -270.735)" fill="#fff"/>
        <path id="Path_7" data-name="Path 7" d="M527.569,318.937a8.28,8.28,0,0,1,2.508-6.256,9.267,9.267,0,0,1,6.609-2.4,9.122,9.122,0,0,1,6.574,2.4,8.964,8.964,0,0,1,0,12.511,9.1,9.1,0,0,1-6.574,2.368,9.264,9.264,0,0,1-6.609-2.4A8.2,8.2,0,0,1,527.569,318.937Zm6.255,0a3.263,3.263,0,0,0,.777,2.262,2.742,2.742,0,0,0,2.085.848,2.665,2.665,0,0,0,2.05-.848,3.282,3.282,0,0,0,.813-2.262,3.134,3.134,0,0,0-.812-2.227,2.579,2.579,0,0,0-2.05-.883,2.651,2.651,0,0,0-2.085.883A3.116,3.116,0,0,0,533.824,318.937Z" transform="translate(-507.105 -272.399)" fill="#fff"/>
        <path id="Path_8" data-name="Path 8" d="M558.219,312.429l.051.465a4.662,4.662,0,0,1,4.452-2.616,6.973,6.973,0,0,1,1.979.318l-.253,3.335a2.044,2.044,0,0,1-2.094,1.86h-.021c-2.368,0-3.711,1.414-3.711,3.994v7.421h-6.644V310.632h4.236A2.017,2.017,0,0,1,558.219,312.429Z" transform="translate(-511.44 -272.399)" fill="#fff"/>
        <path id="Path_9" data-name="Path 9" d="M596.024,322.34V325.8h-18.13V302.371h4.841a2.016,2.016,0,0,1,2.016,2.016v15.936h9.258A2.017,2.017,0,0,1,596.024,322.34Z" transform="translate(-516.043 -270.994)" fill="#fff"/>
        <path id="Path_10" data-name="Path 10" d="M600.243,318.937a8.278,8.278,0,0,1,2.509-6.256,9.264,9.264,0,0,1,6.609-2.4,9.119,9.119,0,0,1,6.573,2.4,8.962,8.962,0,0,1,0,12.511,9.094,9.094,0,0,1-6.573,2.368,9.261,9.261,0,0,1-6.609-2.4A8.2,8.2,0,0,1,600.243,318.937Zm6.255,0a3.26,3.26,0,0,0,.778,2.262,2.74,2.74,0,0,0,2.085.848,2.663,2.663,0,0,0,2.049-.848,3.282,3.282,0,0,0,.813-2.262,3.134,3.134,0,0,0-.812-2.227,2.577,2.577,0,0,0-2.049-.883,2.649,2.649,0,0,0-2.085.883A3.113,3.113,0,0,0,606.5,318.937Z" transform="translate(-520.012 -272.399)" fill="#fff"/>
        <path id="Path_11" data-name="Path 11" d="M638.754,311.3l-.346,3.417a1.514,1.514,0,0,1-1.772,1.35,12.292,12.292,0,0,0-2.335-.207c-2.368,0-3.746,1.166-3.746,3.04,0,1.838,1.343,2.933,3.711,2.933a10.405,10.405,0,0,0,2.38-.271,1.539,1.539,0,0,1,1.9,1.262l.488,3.461a13.162,13.162,0,0,1-5.972,1.272,9.091,9.091,0,0,1-6.538-2.4,9.1,9.1,0,0,1,0-12.476,8.979,8.979,0,0,1,6.467-2.4A14.052,14.052,0,0,1,638.754,311.3Z" transform="translate(-524.241 -272.399)" fill="#fff"/>
        <path id="Path_12" data-name="Path 12" d="M645.169,325.121a10.078,10.078,0,0,1,0-12.37,6.749,6.749,0,0,1,5.371-2.474,5.358,5.358,0,0,1,4.418,1.909h0a1.753,1.753,0,0,1,1.742-1.555h5.008v16.574h-6.573l-.177-1.52a5.389,5.389,0,0,1-4.418,1.873A6.824,6.824,0,0,1,645.169,325.121Zm7.1-9.295a3.1,3.1,0,0,0,0,6.185,3.1,3.1,0,0,0,0-6.185Z" transform="translate(-527.614 -272.399)" fill="#fff"/>
        <path id="Path_13" data-name="Path 13" d="M675.263,301.34v24.279H668.62V303.778a2.437,2.437,0,0,1,2.437-2.438Z" transform="translate(-532.156 -270.811)" fill="#fff"/>
      </g>
      <g id="Group_2" data-name="Group 2" transform="translate(413.223 264.219)">
        <path id="Path_14" data-name="Path 14" d="M484.611,273.236l2.183-3.78a3.493,3.493,0,0,0-3.025-5.239h-4.22l0,0A10.278,10.278,0,0,0,484.611,273.236Z" transform="translate(-425.003 -264.218)" fill="#00a651"/>
        <path id="Path_15" data-name="Path 15" d="M470.484,264.385c0-.056,0-.111,0-.167H455.951A29.664,29.664,0,0,0,470.8,289.9l6.086-10.54,1.1-1.9A15.148,15.148,0,0,1,470.484,264.385Z" transform="translate(-420.812 -264.218)" fill="#00a651"/>
        <path id="Path_16" data-name="Path 16" d="M415.879,273.236a10.275,10.275,0,0,0,5.065-9.016l0,0h-4.22a3.492,3.492,0,0,0-3.025,5.239Z" transform="translate(-413.223 -264.218)" fill="#f7941d"/>
        <path id="Path_17" data-name="Path 17" d="M441.456,264.218H426.911c0,.056,0,.111,0,.167a15.148,15.148,0,0,1-7.5,13.067l1.1,1.908L426.6,289.9A29.664,29.664,0,0,0,441.456,264.218Z" transform="translate(-414.323 -264.218)" fill="#f7941d"/>
        <path id="Path_18" data-name="Path 18" d="M444.54,323.5l2.353,4.076a3.493,3.493,0,0,0,6.049,0l2.352-4.075a10.247,10.247,0,0,0-10.754,0Z" transform="translate(-418.785 -274.477)" fill="#27aae1"/>
        <path id="Path_19" data-name="Path 19" d="M455.715,315.283l.809-1.4,6.091-10.548a29.754,29.754,0,0,0-29.423,0l6.09,10.548.808,1.4a15.113,15.113,0,0,1,15.625,0Z" transform="translate(-416.77 -270.474)" fill="#27aae1"/>
      </g>
    </g>
  </g>
</svg>